<svg width="55" height="55" viewBox="0 0 55 55" fill="none" xmlns="http://www.w3.org/2000/svg">
<rect width="55" height="55" rx="5" fill="#FFE600"/>
<path d="M27.5 27.449C25.2542 27.449 23.4167 26.7344 21.9875 25.3052C20.5583 23.876 19.8438 22.0385 19.8438 19.7927C19.8438 17.5469 20.5583 15.7094 21.9875 14.2802C23.4167 12.851 25.2542 12.1365 27.5 12.1365C29.7458 12.1365 31.5833 12.851 33.0125 14.2802C34.4417 15.7094 35.1563 17.5469 35.1563 19.7927C35.1563 22.0385 34.4417 23.876 33.0125 25.3052C31.5833 26.7344 29.7458 27.449 27.5 27.449ZM11.1667 43.8333V39.0354C11.1667 37.7424 11.4899 36.6365 12.1365 35.7177C12.783 34.799 13.6167 34.1014 14.6375 33.625C16.9174 32.6042 19.1037 31.8385 21.1964 31.3281C23.2891 30.8177 25.3903 30.5625 27.5 30.5625C29.6097 30.5625 31.7024 30.8262 33.7781 31.3536C35.8538 31.8811 38.0303 32.6415 40.3074 33.6349C41.3725 34.1156 42.2265 34.8126 42.8692 35.7259C43.512 36.6392 43.8333 37.7424 43.8333 39.0354V43.8333H11.1667ZM14.2292 40.7708H40.7708V39.0354C40.7708 38.491 40.6092 37.9721 40.2859 37.4786C39.9627 36.9852 39.5629 36.6194 39.0865 36.3813C36.9087 35.3264 34.9181 34.6033 33.1146 34.212C31.3111 33.8207 29.4396 33.625 27.5 33.625C25.5604 33.625 23.6719 33.8207 21.8344 34.212C19.9969 34.6033 18.0063 35.3264 15.8625 36.3813C15.3861 36.6194 14.9948 36.9852 14.6885 37.4786C14.3823 37.9721 14.2292 38.491 14.2292 39.0354V40.7708ZM27.5 24.3865C28.8271 24.3865 29.9245 23.9526 30.7922 23.0849C31.6599 22.2172 32.0938 21.1198 32.0938 19.7927C32.0938 18.4656 31.6599 17.3682 30.7922 16.5005C29.9245 15.6328 28.8271 15.199 27.5 15.199C26.1729 15.199 25.0755 15.6328 24.2078 16.5005C23.3401 17.3682 22.9063 18.4656 22.9063 19.7927C22.9063 21.1198 23.3401 22.2172 24.2078 23.0849C25.0755 23.9526 26.1729 24.3865 27.5 24.3865Z" fill="#111111"/>
</svg>
