<svg width="55" height="55" viewBox="0 0 55 55" fill="none" xmlns="http://www.w3.org/2000/svg">
<rect width="55" height="55" rx="5" fill="#FFE600"/>
<path d="M28 45C24.1 45 20.7917 43.6417 18.075 40.925C15.3583 38.2083 14 34.9 14 31C14 27.6667 15.025 24.725 17.075 22.175C19.125 19.625 21.7667 18 25 17.3C24.1333 17.1333 23.3 16.8917 22.5 16.575C21.7 16.2583 20.9833 15.7833 20.35 15.15C19.4167 14.1833 18.7917 13.0667 18.475 11.8C18.1583 10.5333 18 9.23334 18 7.9V7C20.8667 6.93334 23.3333 7.875 25.4 9.825C27.4667 11.775 28.4833 14.1667 28.45 17C28.9167 15.5667 29.575 14.2333 30.425 13C31.275 11.7667 32.2333 10.6167 33.3 9.55C33.6 9.25 33.95 9.1 34.35 9.1C34.75 9.1 35.1 9.25 35.4 9.55C35.7 9.85 35.85 10.2 35.85 10.6C35.85 11 35.7 11.35 35.4 11.65C34.5667 12.4833 33.8167 13.3833 33.15 14.35C32.4833 15.3167 31.9167 16.3333 31.45 17.4C34.5833 18.2 37.125 19.8583 39.075 22.375C41.025 24.8917 42 27.7667 42 31C42 34.9 40.6417 38.2083 37.925 40.925C35.2083 43.6417 31.9 45 28 45ZM28 42C31.0667 42 33.6667 40.9333 35.8 38.8C37.9333 36.6667 39 34.0667 39 31C39 27.9333 37.9333 25.3333 35.8 23.2C33.6667 21.0667 31.0667 20 28 20C24.9333 20 22.3333 21.0667 20.2 23.2C18.0667 25.3333 17 27.9333 17 31C17 34.0667 18.0667 36.6667 20.2 38.8C22.3333 40.9333 24.9333 42 28 42Z" fill="black"/>
</svg>
