<svg width="28" height="39" viewBox="0 0 28 39" fill="none" xmlns="http://www.w3.org/2000/svg">
<path d="M14 39C10.1 39 6.79167 37.6417 4.075 34.925C1.35833 32.2083 0 28.9 0 25C0 21.6667 1.025 18.725 3.075 16.175C5.125 13.625 7.76667 12 11 11.3C10.1333 11.1333 9.3 10.8917 8.5 10.575C7.7 10.2583 6.98333 9.78334 6.35 9.15C5.41667 8.18334 4.79167 7.06667 4.475 5.8C4.15833 4.53334 4 3.23334 4 1.9V1C6.86667 0.933336 9.33333 1.875 11.4 3.825C13.4667 5.775 14.4833 8.16667 14.45 11C14.9167 9.56667 15.575 8.23334 16.425 7C17.275 5.76667 18.2333 4.61667 19.3 3.55C19.6 3.25 19.95 3.1 20.35 3.1C20.75 3.1 21.1 3.25 21.4 3.55C21.7 3.85 21.85 4.2 21.85 4.6C21.85 5 21.7 5.35 21.4 5.65C20.5667 6.48334 19.8167 7.38334 19.15 8.35C18.4833 9.31667 17.9167 10.3333 17.45 11.4C20.5833 12.2 23.125 13.8583 25.075 16.375C27.025 18.8917 28 21.7667 28 25C28 28.9 26.6417 32.2083 23.925 34.925C21.2083 37.6417 17.9 39 14 39ZM14 36C17.0667 36 19.6667 34.9333 21.8 32.8C23.9333 30.6667 25 28.0667 25 25C25 21.9333 23.9333 19.3333 21.8 17.2C19.6667 15.0667 17.0667 14 14 14C10.9333 14 8.33333 15.0667 6.2 17.2C4.06667 19.3333 3 21.9333 3 25C3 28.0667 4.06667 30.6667 6.2 32.8C8.33333 34.9333 10.9333 36 14 36Z" fill="black"/>
</svg>
