<svg width="203" height="92" viewBox="0 0 203 92" fill="none" xmlns="http://www.w3.org/2000/svg">
<path d="M15.3333 80.5V34.5L46 11.5L76.6666 34.5V80.5H15.3333ZM21.0833 74.75H70.9166V37.375L46 18.6875L21.0833 37.375V74.75ZM38.3333 69H42.1666V53.6667C43.7639 53.6667 45.1215 53.1076 46.2396 51.9896C47.3576 50.8715 47.9166 49.5139 47.9166 47.9167V36.4167H44.0833V47.9167H42.1666V36.4167H38.3333V47.9167H36.4166V36.4167H32.5833V47.9167C32.5833 49.5139 33.1423 50.8715 34.2604 51.9896C35.3785 53.1076 36.7361 53.6667 38.3333 53.6667V69ZM53.6666 69H57.5V36.4167C55.3916 36.4167 53.5868 37.1674 52.0854 38.6687C50.584 40.1701 49.8333 41.975 49.8333 44.0833V55.5833H53.6666V69Z" fill="#FFE600"/>
<path d="M92.78 59V33.8H95.732L107.036 52.844H105.452L116.612 33.8H119.564L119.6 59H116.144L116.108 39.236H116.936L107 55.94H105.344L95.336 39.236H96.236V59H92.78ZM127.487 66.2C126.575 66.2 125.687 66.044 124.823 65.732C123.959 65.444 123.215 65.012 122.591 64.436L124.067 61.844C124.547 62.3 125.075 62.648 125.651 62.888C126.227 63.128 126.839 63.248 127.487 63.248C128.327 63.248 129.023 63.032 129.575 62.6C130.127 62.168 130.643 61.4 131.123 60.296L132.311 57.668L132.671 57.236L140.159 39.92H143.543L134.291 60.908C133.739 62.252 133.115 63.308 132.419 64.076C131.747 64.844 131.003 65.384 130.187 65.696C129.371 66.032 128.471 66.2 127.487 66.2ZM132.023 59.612L123.311 39.92H126.911L134.327 56.912L132.023 59.612Z" fill="#F1F1F1"/>
<path d="M161.548 45.14H173.644V49.82H161.548V45.14ZM161.98 59H156.148V33.8H175.192V38.48H161.98V59ZM178.744 59V39.632H184.36V59H178.744ZM181.552 36.932C180.52 36.932 179.68 36.632 179.032 36.032C178.384 35.432 178.06 34.688 178.06 33.8C178.06 32.912 178.384 32.168 179.032 31.568C179.68 30.968 180.52 30.668 181.552 30.668C182.584 30.668 183.424 30.956 184.072 31.532C184.72 32.084 185.044 32.804 185.044 33.692C185.044 34.628 184.72 35.408 184.072 36.032C183.448 36.632 182.608 36.932 181.552 36.932ZM197.492 59.288C195.212 59.288 193.436 58.712 192.164 57.56C190.892 56.384 190.256 54.644 190.256 52.34V35.348H195.872V52.268C195.872 53.084 196.088 53.72 196.52 54.176C196.952 54.608 197.54 54.824 198.284 54.824C199.172 54.824 199.928 54.584 200.552 54.104L202.064 58.064C201.488 58.472 200.792 58.784 199.976 59C199.184 59.192 198.356 59.288 197.492 59.288ZM187.268 44.384V40.064H200.696V44.384H187.268Z" fill="#FFE600"/>
</svg>
