<svg width="33" height="32" viewBox="0 0 33 32" fill="none" xmlns="http://www.w3.org/2000/svg">
<path d="M16.5 15.449C14.2542 15.449 12.4167 14.7344 10.9875 13.3052C9.55834 11.876 8.84375 10.0385 8.84375 7.79271C8.84375 5.54688 9.55834 3.70938 10.9875 2.28021C12.4167 0.851043 14.2542 0.136459 16.5 0.136459C18.7458 0.136459 20.5833 0.851043 22.0125 2.28021C23.4417 3.70938 24.1563 5.54688 24.1563 7.79271C24.1563 10.0385 23.4417 11.876 22.0125 13.3052C20.5833 14.7344 18.7458 15.449 16.5 15.449ZM0.166672 31.8333V27.0354C0.166672 25.7424 0.489936 24.6365 1.13646 23.7177C1.78299 22.799 2.61667 22.1014 3.6375 21.625C5.91737 20.6042 8.10365 19.8385 10.1964 19.3281C12.2891 18.8177 14.3903 18.5625 16.5 18.5625C18.6097 18.5625 20.7024 18.8262 22.7781 19.3536C24.8538 19.8811 27.0303 20.6415 29.3074 21.6349C30.3725 22.1156 31.2265 22.8126 31.8692 23.7259C32.512 24.6392 32.8333 25.7424 32.8333 27.0354V31.8333H0.166672ZM3.22917 28.7708H29.7708V27.0354C29.7708 26.491 29.6092 25.9721 29.2859 25.4786C28.9627 24.9852 28.5629 24.6194 28.0865 24.3813C25.9087 23.3264 23.9181 22.6033 22.1146 22.212C20.3111 21.8207 18.4396 21.625 16.5 21.625C14.5604 21.625 12.6719 21.8207 10.8344 22.212C8.99688 22.6033 7.00625 23.3264 4.8625 24.3813C4.38612 24.6194 3.9948 24.9852 3.68855 25.4786C3.3823 25.9721 3.22917 26.491 3.22917 27.0354V28.7708ZM16.5 12.3865C17.8271 12.3865 18.9245 11.9526 19.7922 11.0849C20.6599 10.2172 21.0938 9.11979 21.0938 7.79271C21.0938 6.46563 20.6599 5.36823 19.7922 4.50052C18.9245 3.63281 17.8271 3.19896 16.5 3.19896C15.1729 3.19896 14.0755 3.63281 13.2078 4.50052C12.3401 5.36823 11.9063 6.46563 11.9063 7.79271C11.9063 9.11979 12.3401 10.2172 13.2078 11.0849C14.0755 11.9526 15.1729 12.3865 16.5 12.3865Z" fill="#111111"/>
</svg>
